HIERARCHY
ROOT Hips
{
  OFFSET 5.80788e-005 67.184 3.4734
  CHANNELS 6 Xposition Yposition Zposition Zrotation Xrotation Yrotation
  JOINT Chest
  {
    OFFSET 0 8.7983 -4.7612
    CHANNELS 6 Xposition Yposition Zposition Zrotation Xrotation Yrotation
    JOINT Chest2
    {
      OFFSET 0 8.0291 0.4195
      CHANNELS 6 Xposition Yposition Zposition Zrotation Xrotation Yrotation
      JOINT Chest3
      {
        OFFSET 0 9.9351 -2.2114
        CHANNELS 6 Xposition Yposition Zposition Zrotation Xrotation Yrotation
        JOINT Neck
        {
          OFFSET 0 22.3885 -0.4656
          CHANNELS 6 Xposition Yposition Zposition Zrotation Xrotation Yrotation
          JOINT Head
          {
            OFFSET -0.0001 12.643 3.4389
            CHANNELS 6 Xposition Yposition Zposition Zrotation Xrotation Yrotation
            End Site
            {
              OFFSET 0.0001 17.6655 0.5274
            }
          }
        }
        JOINT LeftCollar
        {
          OFFSET 2.2603 21.606 7.4023
          CHANNELS 6 Xposition Yposition Zposition Zrotation Xrotation Yrotation
          JOINT LeftShoulder
          {
            OFFSET 13.5163 -1.1332 -5.0146
            CHANNELS 6 Xposition Yposition Zposition Zrotation Xrotation Yrotation
            JOINT LeftElbow
            {
              OFFSET -0.0995 -28.05 -0.2431
              CHANNELS 6 Xposition Yposition Zposition Zrotation Xrotation Yrotation
              JOINT LeftWrist
              {
                OFFSET 0.0679 -23.3996 -0.1402
                CHANNELS 6 Xposition Yposition Zposition Zrotation Xrotation Yrotation
                JOINT LeftFinger1
                {
                  OFFSET 0.7932 -9.069 2.5189
                  CHANNELS 6 Xposition Yposition Zposition Zrotation Xrotation Yrotation
                  JOINT LeftFinger11
                  {
                    OFFSET -0.8272 -3.3923 0.5977
                    CHANNELS 6 Xposition Yposition Zposition Zrotation Xrotation Yrotation
                    JOINT LeftFinger12
                    {
                      OFFSET -0.5649 -2.3158 0.4082
                      CHANNELS 6 Xposition Yposition Zposition Zrotation Xrotation Yrotation
                      End Site
                      {
                        OFFSET -0.4919 -1.6479 0.2673
                      }
                    }
                  }
                }
                JOINT LeftFinger2
                {
                  OFFSET 0.9159 -9.2044 0.2193
                  CHANNELS 6 Xposition Yposition Zposition Zrotation Xrotation Yrotation
                  JOINT LeftFinger21
                  {
                    OFFSET 0.0117 -4.1944 -0.0248
                    CHANNELS 6 Xposition Yposition Zposition Zrotation Xrotation Yrotation
                    JOINT LeftFinger22
                    {
                      OFFSET 0.0071 -2.3249 -0.0142
                      CHANNELS 6 Xposition Yposition Zposition Zrotation Xrotation Yrotation
                      End Site
                      {
                        OFFSET -0.1475 -2.0882 0.0028
                      }
                    }
                  }
                }
                JOINT LeftFinger3
                {
                  OFFSET 0.6113 -8.7231 -2.0637
                  CHANNELS 6 Xposition Yposition Zposition Zrotation Xrotation Yrotation
                  JOINT LeftFinger31
                  {
                    OFFSET -0.1927 -3.8059 -0.2383
                    CHANNELS 6 Xposition Yposition Zposition Zrotation Xrotation Yrotation
                    JOINT LeftFinger32
                    {
                      OFFSET -0.1091 -2.1688 -0.1362
                      CHANNELS 6 Xposition Yposition Zposition Zrotation Xrotation Yrotation
                      End Site
                      {
                        OFFSET -0.2358 -1.9176 -0.0906
                      }
                    }
                  }
                }
                JOINT LeftFinger4
                {
                  OFFSET -0.6151 -8.0947 -3.5641
                  CHANNELS 6 Xposition Yposition Zposition Zrotation Xrotation Yrotation
                  JOINT LeftFinger41
                  {
                    OFFSET -0.4882 -2.341 -0.6462
                    CHANNELS 6 Xposition Yposition Zposition Zrotation Xrotation Yrotation
                    JOINT LeftFinger42
                    {
                      OFFSET -0.3575 -1.7167 -0.4742
                      CHANNELS 6 Xposition Yposition Zposition Zrotation Xrotation Yrotation
                      End Site
                      {
                        OFFSET -0.4187 -1.5237 -0.3496
                      }
                    }
                  }
                }
                JOINT LeftFinger0
                {
                  OFFSET -1.42 -1.8761 1.4223
                  CHANNELS 6 Xposition Yposition Zposition Zrotation Xrotation Yrotation
                  JOINT LeftFinger01
                  {
                    OFFSET -1.1471 -3.4929 2.6334
                    CHANNELS 6 Xposition Yposition Zposition Zrotation Xrotation Yrotation
                    JOINT LeftFinger02
                    {
                      OFFSET -0.823 -2.3 1.6571
                      CHANNELS 6 Xposition Yposition Zposition Zrotation Xrotation Yrotation
                      End Site
                      {
                        OFFSET -0.5822 -1.6914 1.1582
                      }
                    }
                  }
                }
              }
            }
          }
        }
        JOINT RightCollar
        {
          OFFSET -2.2603 21.606 7.4023
          CHANNELS 6 Xposition Yposition Zposition Zrotation Xrotation Yrotation
          JOINT RightShoulder
          {
            OFFSET -13.5187 -1.1334 -5.0155
            CHANNELS 6 Xposition Yposition Zposition Zrotation Xrotation Yrotation
            JOINT RightElbow
            {
              OFFSET 0.0994 -28.0499 -0.2431
              CHANNELS 6 Xposition Yposition Zposition Zrotation Xrotation Yrotation
              JOINT RightWrist
              {
                OFFSET -0.0679 -23.3996 -0.1402
                CHANNELS 6 Xposition Yposition Zposition Zrotation Xrotation Yrotation
                JOINT RightFinger1
                {
                  OFFSET -0.7932 -9.0691 2.5189
                  CHANNELS 6 Xposition Yposition Zposition Zrotation Xrotation Yrotation
                  JOINT RightFinger11
                  {
                    OFFSET 0.8272 -3.3923 0.5977
                    CHANNELS 6 Xposition Yposition Zposition Zrotation Xrotation Yrotation
                    JOINT RightFinger12
                    {
                      OFFSET 0.565 -2.3158 0.4082
                      CHANNELS 6 Xposition Yposition Zposition Zrotation Xrotation Yrotation
                      End Site
                      {
                        OFFSET 0.4919 -1.6479 0.2673
                      }
                    }
                  }
                }
                JOINT RightFinger2
                {
                  OFFSET -0.916 -9.2044 0.2193
                  CHANNELS 6 Xposition Yposition Zposition Zrotation Xrotation Yrotation
                  JOINT RightFinger21
                  {
                    OFFSET -0.0117 -4.1944 -0.0248
                    CHANNELS 6 Xposition Yposition Zposition Zrotation Xrotation Yrotation
                    JOINT RightFinger22
                    {
                      OFFSET -0.0071 -2.3249 -0.0142
                      CHANNELS 6 Xposition Yposition Zposition Zrotation Xrotation Yrotation
                      End Site
                      {
                        OFFSET 0.1475 -2.0882 0.0028
                      }
                    }
                  }
                }
                JOINT RightFinger3
                {
                  OFFSET -0.6113 -8.7231 -2.0637
                  CHANNELS 6 Xposition Yposition Zposition Zrotation Xrotation Yrotation
                  JOINT RightFinger31
                  {
                    OFFSET 0.1927 -3.8059 -0.2383
                    CHANNELS 6 Xposition Yposition Zposition Zrotation Xrotation Yrotation
                    JOINT RightFinger32
                    {
                      OFFSET 0.1091 -2.1688 -0.1362
                      CHANNELS 6 Xposition Yposition Zposition Zrotation Xrotation Yrotation
                      End Site
                      {
                        OFFSET 0.2358 -1.9176 -0.0906
                      }
                    }
                  }
                }
                JOINT RightFinger4
                {
                  OFFSET 0.6151 -8.0947 -3.564
                  CHANNELS 6 Xposition Yposition Zposition Zrotation Xrotation Yrotation
                  JOINT RightFinger41
                  {
                    OFFSET 0.4882 -2.341 -0.6462
                    CHANNELS 6 Xposition Yposition Zposition Zrotation Xrotation Yrotation
                    JOINT RightFinger42
                    {
                      OFFSET 0.3574 -1.7166 -0.4742
                      CHANNELS 6 Xposition Yposition Zposition Zrotation Xrotation Yrotation
                      End Site
                      {
                        OFFSET 0.4187 -1.5237 -0.3496
                      }
                    }
                  }
                }
                JOINT RightFinger0
                {
                  OFFSET 1.4199 -1.8761 1.4221
                  CHANNELS 6 Xposition Yposition Zposition Zrotation Xrotation Yrotation
                  JOINT RightFinger01
                  {
                    OFFSET 1.1472 -3.4929 2.6336
                    CHANNELS 6 Xposition Yposition Zposition Zrotation Xrotation Yrotation
                    JOINT RightFinger02
                    {
                      OFFSET 0.8229 -2.3 1.6571
                      CHANNELS 6 Xposition Yposition Zposition Zrotation Xrotation Yrotation
                      End Site
                      {
                        OFFSET 0.5822 -1.6914 1.1582
                      }
                    }
                  }
                }
              }
            }
          }
        }
      }
    }
  }
  JOINT RightHip
  {
    OFFSET -9.412 3.9771 -0.7758
    CHANNELS 6 Xposition Yposition Zposition Zrotation Xrotation Yrotation
    JOINT RightKnee
    {
      OFFSET -0.7531 -40.938 0
      CHANNELS 6 Xposition Yposition Zposition Zrotation Xrotation Yrotation
      JOINT RightAnkle
      {
        OFFSET 0 -40.1986 0
        CHANNELS 6 Xposition Yposition Zposition Zrotation Xrotation Yrotation
        JOINT RightToe
        {
          OFFSET 0 -4.4182 9.239
          CHANNELS 6 Xposition Yposition Zposition Zrotation Xrotation Yrotation
          End Site
          {
            OFFSET 0 0 6.1981
          }
        }
      }
    }
  }
  JOINT LeftHip
  {
    OFFSET 9.4119 3.9773 -0.7758
    CHANNELS 6 Xposition Yposition Zposition Zrotation Xrotation Yrotation
    JOINT LeftKnee
    {
      OFFSET 0.7532 -40.9383 0
      CHANNELS 6 Xposition Yposition Zposition Zrotation Xrotation Yrotation
      JOINT LeftAnkle
      {
        OFFSET 0 -40.1986 0
        CHANNELS 6 Xposition Yposition Zposition Zrotation Xrotation Yrotation
        JOINT LeftToe
        {
          OFFSET 0 -4.4182 9.239
          CHANNELS 6 Xposition Yposition Zposition Zrotation Xrotation Yrotation
          End Site
          {
            OFFSET 0 0 6.1981
          }
        }
      }
    }
  }
}
MOTION
Frames:	4
Frame Time:	0.0333333
-0.569703 -3.44469 53.2359 -0.350155 -80.7422 -175.61 -1.11022e-016 8.7983 -4.7612 3.66117 1.26506 3.00742 2.22045e-016 8.0291 0.4195 7.25395 2.71788 5.93037 0 9.9351 -2.2114 7.25397 2.71788 5.93039 -8.88178e-016 22.3885 -0.4656 -10.1506 9.83577 23.7502 -0.0001 12.643 3.4389 -6.02433 4.96821 36.1219 2.2603 21.606 7.4023 4.30652 -38.6633 14.4314 13.5163 -1.1332 -5.0146 41.0512 -27.7388 23.1856 -0.0995 -28.05 -0.2431 -116.222 -76.4517 -161.63 0.0679 -23.3996 -0.1402 15.8693 4.64962 86.5749 0.7932 -9.069 2.5189 -3.18055e-015 1.59028e-015 -2.98177e-016 -0.8272 -3.3923 0.5977 -3.18055e-015 0 2.88238e-015 -0.5649 -2.3158 0.4082 -3.18055e-015 1.59028e-015 -1.98785e-016 0.9159 -9.2044 0.2193 -3.18055e-015 1.59028e-015 -2.98177e-016 0.0117 -4.1944 -0.0248 -0.0128319 0.00232068 8.7075e-005 0.0071 -2.3249 -0.0142 3.18055e-015 -7.95139e-016 5.56597e-015 0.6113 -8.7231 -2.0637 -3.18055e-015 1.59028e-015 -2.98177e-016 -0.1927 -3.8059 -0.2383 -0.0160344 0.00299678 0.000853397 -0.1091 -2.1688 -0.1362 -3.18055e-015 -1.19271e-015 1.98785e-016 -0.6151 -8.0947 -3.5641 -3.18055e-015 1.59028e-015 -2.98177e-016 -0.4882 -2.341 -0.6462 -0.0125969 0.00312084 0.00282931 -0.3575 -1.7167 -0.4742 -3.18055e-015 0 7.15625e-015 -1.42 -1.8761 1.4223 -3.18055e-015 1.59028e-015 -2.98177e-016 -1.1471 -3.4929 2.6334 -3.18055e-015 0 2.88238e-015 -0.823 -2.3 1.6571 -3.18055e-015 1.59028e-015 -1.98785e-016 -2.2603 21.606 7.4023 -31.7732 -41.0965 -23.3079 -13.5187 -1.1334 -5.0155 -34.2709 -36.8911 -11.3243 0.0994 -28.0499 -0.2431 139.658 -49.677 125.257 -0.0679 -23.3996 -0.1402 -39.2125 29.1239 6.54707 -0.7932 -9.06911 2.5189 6.05636e-006 1.03153e-005 -9.26662e-006 0.8272 -3.3923 0.5977 -4.96564e-032 1.59028e-015 1.78906e-015 0.565 -2.3158 0.4082 -2.12147e-006 -1.72662e-007 -2.52353e-006 -0.916 -9.20441 0.2193 6.05636e-006 1.03153e-005 -9.26662e-006 -0.0117 -4.1944 -0.0248 0.0129632 0.00230252 -8.84494e-005 -0.0071 -2.3249 -0.0142 -5.82337e-007 7.15146e-007 -6.12692e-006 -0.6113 -8.7231 -2.0637 6.05636e-006 1.03153e-005 -9.26662e-006 0.1927 -3.8059 -0.2383 0.0163083 0.00302463 -0.000869732 0.1091 -2.1688 -0.1362 1.88205e-007 2.80548e-006 -5.11158e-006 0.6151 -8.0947 -3.564 6.05636e-006 1.03153e-005 -9.26662e-006 0.4882 -2.341 -0.6462 0.0145821 0.00368692 -0.00325909 0.3574 -1.7166 -0.4742 -2.01083e-006 -8.34013e-006 -7.21848e-006 1.4199 -1.8761 1.4221 6.05636e-006 1.03153e-005 -9.26662e-006 1.1472 -3.4929 2.6336 -4.96564e-032 1.59028e-015 1.78906e-015 0.8229 -2.3 1.6571 -2.12147e-006 -1.72662e-007 -2.52353e-006 -9.412 3.9771 -0.7758 -5.87689 -3.50876 0.817013 -0.7531 -40.938 -1.77636e-015 4.35102 28.8022 -4.20698 -1.77636e-015 -40.1986 0 -15.5025 30.8967 11.0656 -1.77636e-015 -4.4182 9.239 -1.15439e-006 -3.79956e-006 -7.48179e-008 9.4119 3.9773 -0.7758 5.18093 -0.771694 0.748909 0.7532 -40.9383 1.77636e-015 2.44198 22.0989 -1.27337 0 -40.1986 -7.10543e-015 14.5944 15.7023 1.4093 -3.55271e-015 -4.4182 9.239 2.03037e-006 1.21513e-005 -3.64737e-007 
-0.567986 -3.43858 53.2398 -0.345969 -80.7902 -175.632 -1.11022e-016 8.7983 -4.7612 3.66117 1.26506 3.00742 -2.22045e-016 8.0291 0.4195 7.25395 2.71788 5.93038 0 9.9351 -2.2114 7.25396 2.71786 5.93039 1.77636e-015 22.3885 -0.4656 -10.1506 9.83578 23.7502 -0.0001 12.643 3.4389 -6.02423 4.96813 36.4221 2.2603 21.606 7.4023 4.23441 -38.5983 14.3099 13.5163 -1.1332 -5.0146 41.0577 -27.7318 23.1949 -0.0995 -28.05 -0.2431 -116.222 -76.4517 -161.63 0.0679 -23.3996 -0.1402 15.8693 4.64962 86.5749 0.7932 -9.069 2.5189 -3.18055e-015 -3.97569e-016 3.77691e-015 -0.8272 -3.3923 0.5977 -3.18055e-015 -3.97569e-016 5.96354e-016 -0.5649 -2.3158 0.4082 -3.18055e-015 7.95139e-016 -5.56597e-015 0.9159 -9.2044 0.2193 -3.18055e-015 -3.97569e-016 3.77691e-015 0.0117 -4.1944 -0.0248 -0.0128351 0.00231811 8.37451e-005 0.0071 -2.3249 -0.0142 -3.86933e-006 8.85457e-006 -5.88179e-006 0.6113 -8.7231 -2.0637 -3.18055e-015 -3.97569e-016 3.77691e-015 -0.1927 -3.8059 -0.2383 -0.0160486 0.002992 0.000856995 -0.1091 -2.1688 -0.1362 -6.36111e-015 -7.95139e-016 -3.67752e-015 -0.6151 -8.0947 -3.5641 -3.18055e-015 -3.97569e-016 3.77691e-015 -0.4882 -2.341 -0.6462 -0.0125706 0.00311612 0.00281667 -0.3575 -1.7167 -0.4742 -7.44847e-032 -7.95139e-016 -5.36719e-015 -1.42 -1.8761 1.4223 -3.18055e-015 -3.97569e-016 3.77691e-015 -1.1471 -3.4929 2.6334 -3.18055e-015 -3.97569e-016 5.96354e-016 -0.823 -2.3 1.6571 -3.18055e-015 7.95139e-016 -5.56597e-015 -2.2603 21.606 7.4023 -31.6903 -41.0033 -23.1924 -13.5187 -1.1334 -5.0155 -34.2857 -36.8841 -11.3424 0.0994 -28.0499 -0.2431 139.643 -49.695 125.242 -0.0679 -23.3996 -0.1402 -39.2125 29.1239 6.54708 -0.7932 -9.06911 2.5189 -1.65521e-032 -1.59028e-015 -5.96354e-016 0.8272 -3.3923 0.5977 -7.95139e-016 -1.59028e-015 7.95139e-016 0.565 -2.3158 0.4082 1.59028e-015 0 -5.96354e-016 -0.916 -9.20441 0.2193 -1.65521e-032 -1.59028e-015 -5.96354e-016 -0.0117 -4.1944 -0.0248 0.0129566 0.00232576 -9.17742e-005 -0.0071 -2.3249 -0.0142 -2.20695e-032 -1.59028e-015 -7.95139e-016 -0.6113 -8.72311 -2.0637 -1.65521e-032 -1.59028e-015 -5.96354e-016 0.1927 -3.8059 -0.2383 0.0163301 0.00302895 -0.000875584 0.1091 -2.1688 -0.1362 -1.59028e-015 1.59028e-015 3.97569e-016 0.6151 -8.09471 -3.564 -1.65521e-032 -1.59028e-015 -5.96354e-016 0.4882 -2.341 -0.6462 0.0145576 0.00368229 -0.00325823 0.3574 -1.7166 -0.4742 -7.95139e-016 3.18055e-015 5.96354e-016 1.4199 -1.8761 1.4221 -1.65521e-032 -1.59028e-015 -5.96354e-016 1.1472 -3.4929 2.6336 -7.95139e-016 -1.59028e-015 7.95139e-016 0.8229 -2.3 1.6571 1.59028e-015 0 -5.96354e-016 -9.412 3.9771 -0.7758 -5.88498 -3.51331 0.821247 -0.7531 -40.938 -1.77636e-015 4.35104 28.8023 -4.20702 1.77636e-015 -40.1986 -7.10543e-015 -15.5026 30.8965 11.0655 0 -4.4182 9.239 -2.38542e-015 0 1.59028e-015 9.4119 3.9773 -0.7758 5.1809 -0.772173 0.748882 0.7532 -40.9383 -8.88178e-016 2.44197 22.0987 -1.27341 1.77636e-015 -40.1986 -3.55271e-015 14.5945 15.7031 1.40917 0 -4.4182 9.239 4.18762e-007 1.95572e-006 -7.42457e-007 
-0.566293 -3.43256 53.2436 -0.341798 -80.8375 -175.653 0 8.7983 -4.7612 3.66117 1.26506 3.00742 -2.22045e-016 8.0291 0.4195 7.25395 2.71788 5.93037 8.88178e-016 9.9351 -2.2114 7.25397 2.71787 5.93039 -1.77636e-015 22.3885 -0.4656 -10.1506 9.83577 23.7502 -0.0001 12.643 3.4389 -6.02415 4.96805 36.7222 2.2603 21.606 7.4023 4.16254 -38.5333 14.1887 13.5163 -1.1332 -5.0146 41.0643 -27.7248 23.2043 -0.0995 -28.05 -0.2431 -116.222 -76.4517 -161.63 0.0679 -23.3996 -0.1402 15.8694 4.6496 86.5749 0.7932 -9.069 2.5189 -2.17097e-007 -4.88702e-007 3.11671e-006 -0.8272 -3.3923 0.5977 9.1168e-006 2.61333e-006 9.55917e-007 -0.5649 -2.3158 0.4082 -1.72418e-032 3.97569e-016 2.48481e-015 0.9159 -9.2044 0.2193 -2.17097e-007 -4.88702e-007 3.11671e-006 0.0117 -4.1944 -0.0248 -0.0128373 0.00234249 9.57789e-005 0.0071 -2.3249 -0.0142 -5.51738e-033 -7.95139e-016 -3.97569e-016 0.6113 -8.7231 -2.0637 -2.17097e-007 -4.88702e-007 3.11671e-006 -0.1927 -3.8059 -0.2383 -0.0160628 0.0030079 0.000872994 -0.1091 -2.1688 -0.1362 -3.18055e-015 -1.19271e-015 7.95139e-016 -0.6151 -8.0947 -3.5641 -2.17097e-007 -4.88702e-007 3.11671e-006 -0.4882 -2.341 -0.6462 -0.0126244 0.00314211 0.00284284 -0.3575 -1.7167 -0.4742 3.18055e-015 -7.95139e-016 1.39149e-015 -1.42 -1.8761 1.4223 -2.17097e-007 -4.88702e-007 3.11671e-006 -1.1471 -3.4929 2.6334 9.1168e-006 2.61333e-006 9.55917e-007 -0.823 -2.3 1.6571 -1.72418e-032 3.97569e-016 2.48481e-015 -2.2603 21.606 7.4023 -31.6077 -40.9098 -23.0773 -13.5187 -1.1334 -5.0155 -34.2951 -36.8787 -11.3572 0.0994 -28.0499 -0.2431 139.623 -49.7136 125.227 -0.0679 -23.3996 -0.1402 -39.2125 29.1239 6.54704 -0.7932 -9.0691 2.5189 7.95139e-016 -1.59028e-015 1.98785e-016 0.8272 -3.3923 0.5977 3.18055e-015 -1.59028e-015 3.97569e-016 0.565 -2.3158 0.4082 -7.1726e-032 -1.59028e-015 -2.5842e-015 -0.916 -9.2044 0.2193 7.95139e-016 -1.59028e-015 1.98785e-016 -0.0117 -4.1944 -0.0248 0.0129632 0.00231398 -8.43331e-005 -0.0071 -2.3249 -0.0142 0 0 -7.95139e-016 -0.6113 -8.7231 -2.0637 7.95139e-016 -1.59028e-015 1.98785e-016 0.1927 -3.8059 -0.2383 0.0163278 0.00302349 -0.000876921 0.1091 -2.1688 -0.1362 -7.72434e-032 -3.18055e-015 -1.39149e-015 0.6151 -8.0947 -3.564 7.95139e-016 -1.59028e-015 1.98785e-016 0.4882 -2.341 -0.6462 0.0145876 0.00367938 -0.00326517 0.3574 -1.7166 -0.4742 1.59028e-015 1.59028e-015 -9.93923e-016 1.4199 -1.8761 1.4221 7.95139e-016 -1.59028e-015 1.98785e-016 1.1472 -3.4929 2.6336 3.18055e-015 -1.59028e-015 3.97569e-016 0.8229 -2.3 1.6571 -7.1726e-032 -1.59028e-015 -2.5842e-015 -9.412 3.9771 -0.7758 -5.89307 -3.51812 0.825483 -0.7531 -40.938 0 4.35104 28.8027 -4.20708 -1.77636e-015 -40.1986 0 -15.5026 30.8962 11.0655 0 -4.4182 9.239 -3.29144e-006 5.34206e-008 -8.76734e-008 9.4119 3.9773 -0.7758 5.18085 -0.772604 0.748863 0.7532 -40.9383 -3.55271e-015 2.44195 22.0982 -1.27345 0 -40.1986 -3.55271e-015 14.5945 15.704 1.40899 -3.55271e-015 -4.4182 9.239 -3.18055e-015 -6.36111e-015 -0 
-0.564628 -3.42662 53.2473 -0.337763 -80.8841 -175.674 0 8.7983 -4.7612 3.66116 1.26506 3.00742 -2.22045e-016 8.0291 0.4195 7.25394 2.71785 5.93037 0 9.9351 -2.2114 7.25396 2.71789 5.93039 -8.88178e-016 22.3885 -0.4656 -10.1505 9.83576 23.7502 -0.0001 12.643 3.4389 -6.02407 4.96803 37.0224 2.2603 21.606 7.4023 4.09093 -38.4681 14.0678 13.5163 -1.1332 -5.0146 41.0708 -27.7178 23.2136 -0.0995 -28.05 -0.2431 -116.222 -76.4517 -161.63 0.0679 -23.3996 -0.1402 15.8694 4.64959 86.5749 0.7932 -9.069 2.5189 1.37935e-032 3.97569e-016 -1.98785e-015 -0.8272 -3.3923 0.5977 -3.18055e-015 -7.95139e-016 -1.68967e-015 -0.5649 -2.3158 0.4082 3.18055e-015 -3.97569e-016 1.68967e-015 0.9159 -9.2044 0.2193 1.37935e-032 3.97569e-016 -1.98785e-015 0.0117 -4.1944 -0.0248 -0.0128029 0.00233396 8.88549e-005 0.0071 -2.3249 -0.0142 -3.18055e-015 -1.59028e-015 5.26779e-015 0.6113 -8.7231 -2.0637 1.37935e-032 3.97569e-016 -1.98785e-015 -0.1927 -3.8059 -0.2383 -0.0160658 0.0030067 0.000863901 -0.1091 -2.1688 -0.1362 6.36111e-015 7.95139e-016 -1.59028e-015 -0.6151 -8.0947 -3.5641 1.37935e-032 3.97569e-016 -1.98785e-015 -0.4882 -2.341 -0.6462 -0.0125838 0.00313159 0.00282498 -0.3575 -1.7167 -0.4742 -3.18055e-015 -5.1684e-015 8.84592e-015 -1.42 -1.8761 1.4223 1.37935e-032 3.97569e-016 -1.98785e-015 -1.1471 -3.4929 2.6334 -3.18055e-015 -7.95139e-016 -1.68967e-015 -0.823 -2.3 1.6571 3.18055e-015 -3.97569e-016 1.68967e-015 -2.2603 21.606 7.4023 -31.5254 -40.8163 -22.9624 -13.5187 -1.1334 -5.0155 -34.3102 -36.8717 -11.3754 0.0994 -28.0499 -0.2431 139.609 -49.7317 125.213 -0.0679 -23.3996 -0.1402 -39.2125 29.1239 6.54708 -0.7932 -9.06911 2.5189 4.69705e-006 -8.26421e-008 4.74523e-006 0.8272 -3.3923 0.5977 -2.64834e-031 -6.36111e-015 -2.38542e-015 0.565 -2.3158 0.4082 -1.37935e-031 -7.95139e-015 -9.93923e-016 -0.916 -9.20441 0.2193 4.69705e-006 -8.26421e-008 4.74523e-006 -0.0117 -4.1944 -0.0248 0.0129369 0.0023047 -8.94931e-005 -0.0071 -2.3249 -0.0142 -1.59028e-015 -3.18055e-015 -1.19271e-015 -0.6113 -8.72311 -2.0637 4.69705e-006 -8.26421e-008 4.74523e-006 0.1927 -3.8059 -0.2383 0.0163392 0.0030352 -0.000879843 0.1091 -2.1688 -0.1362 6.62086e-032 -4.77083e-015 7.95139e-016 0.6151 -8.09471 -3.564 4.69705e-006 -8.26421e-008 4.74523e-006 0.4882 -2.341 -0.6462 0.0145704 0.00366641 -0.00325712 0.3574 -1.7166 -0.4742 -6.26164e-008 3.31808e-007 4.73056e-006 1.4199 -1.8761 1.4221 4.69705e-006 -8.26421e-008 4.74523e-006 1.1472 -3.4929 2.6336 -2.64834e-031 -6.36111e-015 -2.38542e-015 0.8229 -2.3 1.6571 -1.37935e-031 -7.95139e-015 -9.93923e-016 -9.412 3.9771 -0.7758 -5.90122 -3.52203 0.82972 -0.7531 -40.938 3.55271e-015 4.35106 28.8023 -4.20706 3.55271e-015 -40.1986 0 -15.5025 30.8958 11.0654 -1.77636e-015 -4.4182 9.239 2.91999e-006 -1.28649e-006 -4.08652e-007 9.4119 3.9773 -0.7758 5.18081 -0.773062 0.748833 0.7532 -40.9383 -8.88178e-016 2.44194 22.0979 -1.27346 0 -40.1986 0 14.5946 15.7047 1.40884 -3.55271e-015 -4.4182 9.239 -0 -3.18055e-015 -0 
